<svg width="20" height="20" viewBox="0 0 20 20" fill="none" xmlns="http://www.w3.org/2000/svg">
<path d="M0.5 4.25L3.5 0H6.625L4 3.75H11.875C14.0299 3.75 16.0965 4.60602 17.6202 6.12976C19.144 7.65349 20 9.72012 20 11.875C20 14.0299 19.144 16.0965 17.6202 17.6202C16.0965 19.144 14.0299 20 11.875 20H6.25L7.5 17.5H11.875C13.3668 17.5 14.7976 16.9074 15.8525 15.8525C16.9074 14.7976 17.5 13.3668 17.5 11.875C17.5 10.3832 16.9074 8.95242 15.8525 7.89752C14.7976 6.84263 13.3668 6.25 11.875 6.25H4L6.625 10H3.5L0.5 5.75L0 5L0.5 4.25Z" fill="#D3D6D9"/>
</svg>
