<svg width="25" height="20" viewBox="0 0 25 20" fill="none" xmlns="http://www.w3.org/2000/svg">
<path d="M0.961538 0.967742V0C0.706523 0 0.461951 0.101958 0.281628 0.283445C0.101305 0.464932 0 0.711081 0 0.967742H0.961538ZM24.0385 0.967742H25C25 0.711081 24.8987 0.464932 24.7184 0.283445C24.538 0.101958 24.2935 0 24.0385 0V0.967742ZM0.961538 1.93548H24.0385V0H0.961538V1.93548ZM23.0769 0.967742V16.4516H25V0.967742H23.0769ZM21.4744 18.0645H3.52564V20H21.4744V18.0645ZM1.92308 16.4516V0.967742H0V16.4516H1.92308ZM3.52564 18.0645C2.64103 18.0645 1.92308 17.3419 1.92308 16.4516H0C0 17.3927 0.371451 18.2952 1.03264 18.9607C1.69382 19.6262 2.59058 20 3.52564 20V18.0645ZM23.0769 16.4516C23.0769 17.3419 22.359 18.0645 21.4744 18.0645V20C22.4094 20 23.3062 19.6262 23.9674 18.9607C24.6286 18.2952 25 17.3927 25 16.4516H23.0769Z" fill="#1D7B74"/>
<path d="M23.3586 0.283506C23.7341 -0.0944201 24.3428 -0.0944201 24.7183 0.283506C25.0938 0.661433 25.0938 1.27403 24.7183 1.65195L13.1798 13.2649C12.8043 13.6428 12.1957 13.6428 11.8202 13.2649L0.281689 1.65195C-0.093815 1.27403 -0.093815 0.661433 0.281689 0.283506C0.657193 -0.0944206 1.26586 -0.0944206 1.64136 0.283506L12.5 11.2122L23.3586 0.283506Z" fill="#1D7B74"/>
</svg>
