<svg width="38" height="30" viewBox="0 0 38 30" fill="none" xmlns="http://www.w3.org/2000/svg">
<path d="M1.46154 1.45161V0C1.07391 0 0.702166 0.152937 0.428075 0.425167C0.153983 0.697398 0 1.06662 0 1.45161H1.46154ZM36.5385 1.45161H38C38 1.06662 37.846 0.697398 37.5719 0.425167C37.2978 0.152937 36.9261 0 36.5385 0V1.45161ZM1.46154 2.90323H36.5385V0H1.46154V2.90323ZM35.0769 1.45161V24.6774H38V1.45161H35.0769ZM32.641 27.0968H5.35897V30H32.641V27.0968ZM2.92308 24.6774V1.45161H0V24.6774H2.92308ZM5.35897 27.0968C4.01436 27.0968 2.92308 26.0129 2.92308 24.6774H0C0 26.0891 0.564605 27.4429 1.56961 28.4411C2.57461 29.4392 3.93769 30 5.35897 30V27.0968ZM35.0769 24.6774C35.0769 26.0129 33.9856 27.0968 32.641 27.0968V30C34.0623 30 35.4254 29.4392 36.4304 28.4411C37.4354 27.4429 38 26.0891 38 24.6774H35.0769Z" fill="#D3D6D9"/>
<path d="M35.505 0.425168C36.0758 -0.141722 37.0009 -0.141722 37.5717 0.425168C38.1425 0.992058 38.1425 1.91095 37.5717 2.47784L20.0332 19.8972C19.4625 20.4641 18.5373 20.4641 17.9665 19.8972L0.428075 2.47784C-0.142692 1.91095 -0.142692 0.992058 0.428075 0.425168C0.998841 -0.141723 1.92402 -0.141723 2.49478 0.425168L18.9999 16.8182L35.505 0.425168Z" fill="#D3D6D9"/>
</svg>
