<svg width="30" height="31" viewBox="0 0 30 31" fill="none" xmlns="http://www.w3.org/2000/svg">
<rect width="30" height="31" rx="15" fill="#033F31"/>
<path d="M12.5784 12.3381C12.5781 11.2899 12.8267 10.2611 13.2969 9.34659C10.8766 10.1953 9.1426 12.5895 9.1425 15.3965C9.1425 18.908 11.8568 21.7758 15.2304 21.7758C17.63 21.7758 19.6994 20.3227 20.6913 18.2183C20.0105 18.4909 19.2889 18.6316 18.5603 18.6307C15.3704 18.6307 12.7471 15.998 12.5862 12.6632L12.5784 12.3381ZM13.7208 12.3381C13.7208 15.126 15.8765 17.4066 18.5603 17.4066H18.5608C19.2432 17.4075 19.9184 17.2565 20.5435 16.9631L20.6149 16.9326C20.9721 16.7952 21.3492 16.8801 21.6146 17.0952C21.912 17.3363 22.1121 17.7919 21.9208 18.2817L21.9214 18.2823C20.8395 21.0551 18.2482 22.9999 15.2304 22.9999C11.2479 22.9999 8 19.6075 8 15.3965C8.00011 11.8518 10.304 8.88582 13.4062 8.03762H13.4068C13.873 7.91082 14.2688 8.16304 14.4606 8.511C14.6435 8.8432 14.6664 9.29493 14.4422 9.67413C13.9709 10.4708 13.7206 11.395 13.7208 12.3381Z" fill="#D3D6D9"/>
<path d="M20.0495 11.027C20.0495 10.5537 20.1802 10.0908 20.4255 9.69714L20.4445 9.66606L20.416 9.68698C20.0486 9.94977 19.6165 10.0898 19.1748 10.0898C18.733 10.0898 18.3009 9.94986 17.9336 9.68698V9.68638L17.9034 9.66487L17.9235 9.69714L18.01 9.84776C18.1995 10.2066 18.3001 10.6128 18.3001 11.027C18.3 11.5004 18.1689 11.9633 17.9235 12.3569L17.923 12.3563L17.9029 12.3892L17.9336 12.3671L18.0747 12.2744C18.4095 12.0715 18.7883 11.9637 19.1748 11.9636C19.6163 11.9636 20.0482 12.1039 20.4155 12.3665L20.4445 12.3868L20.4255 12.3563V12.3557C20.1805 11.9623 20.0495 11.5 20.0495 11.027ZM21.192 11.027C21.192 11.2295 21.2411 11.4279 21.3337 11.6032L21.3761 11.6767V11.6773L21.8257 12.4L21.8771 12.4908C22.3586 13.4323 21.3268 14.4893 20.4567 13.8667L19.7823 13.3856L19.7817 13.385C19.6021 13.2565 19.3908 13.1877 19.1748 13.1877C18.9589 13.1878 18.7479 13.2566 18.5684 13.385H18.5678L17.8939 13.8673C16.9975 14.5084 15.9242 13.3642 16.5233 12.4006L16.9729 11.6773L16.9735 11.6767C17.0933 11.4844 17.1575 11.2583 17.1576 11.027C17.1576 10.7956 17.0934 10.5692 16.9735 10.3767L16.9729 10.3761L16.5233 9.65351V9.65291C15.9258 8.69161 16.9946 7.54371 17.8934 8.18675L17.8928 8.18734L18.5678 8.66849H18.5684C18.748 8.79697 18.9589 8.86569 19.1748 8.86574C19.3908 8.86574 19.6021 8.79701 19.7817 8.66849L20.4562 8.18675C21.3524 7.5466 22.4263 8.68827 21.8257 9.65291L21.3761 10.3761V10.3767C21.2561 10.5692 21.192 10.7956 21.192 11.027Z" fill="#D3D6D9"/>
</svg>
