<svg width="36" height="36" viewBox="0 0 36 36" fill="none" xmlns="http://www.w3.org/2000/svg">
<rect width="36" height="36" rx="18" fill="#D3D6D9"/>
<path opacity="0.987" fill-rule="evenodd" clip-rule="evenodd" d="M16.6461 5.10853C17.9412 4.96382 18.7076 4.96382 20.0993 5.10853C22.5627 5.47314 24.8463 6.61182 26.6199 8.3599C25.4214 9.49277 24.2387 10.6422 23.072 11.8078C20.8377 9.91413 18.3438 9.47704 15.5902 10.4965C13.5703 11.4255 12.1638 12.9309 11.3706 15.0127C10.0744 14.0477 8.79511 13.0602 7.53327 12.0507C7.44558 12.0046 7.34542 11.9877 7.24744 12.0025C9.25186 8.13778 12.3841 5.83919 16.6443 5.10674" fill="#F44336"/>
<path opacity="0.997" fill-rule="evenodd" clip-rule="evenodd" d="M7.24383 12.0025C7.34507 11.987 7.44094 12.003 7.53145 12.0507C8.7933 13.0602 10.0726 14.0477 11.3688 15.0127C11.1648 15.8238 11.0362 16.6521 10.9847 17.4869C11.0288 18.2944 11.1568 19.087 11.3688 19.8647L7.3403 23.0714C5.58599 19.4056 5.55383 15.7159 7.24383 12.0025Z" fill="#FFC107"/>
<path opacity="0.999" fill-rule="evenodd" clip-rule="evenodd" d="M26.4286 26.9553C25.1743 25.849 23.8611 24.8114 22.4948 23.8468C23.8645 22.8797 24.6958 21.553 24.9887 19.8665H18.277V15.2056C22.1477 15.1735 26.0166 15.2062 29.8837 15.3039C30.6173 19.2877 29.7699 22.8797 27.3415 26.0799C27.0528 26.3868 26.7469 26.679 26.4286 26.9553Z" fill="#448AFF"/>
<path opacity="0.993" fill-rule="evenodd" clip-rule="evenodd" d="M11.3687 19.8665C12.8336 23.5073 15.5193 25.2069 19.4257 24.9651C20.5223 24.8382 21.5737 24.4551 22.4949 23.8468C23.8621 24.8138 25.1734 25.85 26.4287 26.9552C24.4397 28.7425 21.9037 29.803 19.2346 29.9636C18.6281 30.0121 18.0188 30.0121 17.4124 29.9636C12.8652 29.4277 9.50782 27.1303 7.34024 23.0714L11.3687 19.8665Z" fill="#43A047"/>
</svg>
