<svg width="14" height="15" viewBox="0 0 14 15" fill="none" xmlns="http://www.w3.org/2000/svg">
<path d="M4.57835 4.33816C4.57808 3.28993 4.82665 2.26119 5.29687 1.34665C2.87664 2.19533 1.1426 4.58954 1.1425 7.39661C1.1425 10.9081 3.85684 13.7758 7.23041 13.7759C9.63002 13.7759 11.6994 12.3228 12.6913 10.2184C12.0105 10.491 11.2889 10.6316 10.5603 10.6308C7.3704 10.6308 4.74712 7.99809 4.58616 4.66331L4.57835 4.33816ZM5.72085 4.33816C5.72085 7.12602 7.87646 9.40669 10.5603 9.40669H10.5608C11.2432 9.40756 11.9184 9.25651 12.5435 8.96319L12.6149 8.93271C12.9721 8.79522 13.3492 8.88015 13.6146 9.09528C13.912 9.33641 14.1121 9.79199 13.9208 10.2817L13.9214 10.2823C12.8395 13.0552 10.2482 15 7.23041 15C3.24789 14.9999 0 11.6075 0 7.39661C0.000113046 3.85186 2.30396 0.885883 5.40621 0.0376797H5.40677C5.873 -0.0891235 6.26881 0.163098 6.46057 0.511061C6.64349 0.843265 6.66638 1.29499 6.44216 1.67419C5.97094 2.47083 5.72057 3.39501 5.72085 4.33816Z" fill="#D3D6D9"/>
<path d="M12.0495 3.02703C12.0495 2.55373 12.1802 2.09078 12.4255 1.69714L12.4445 1.66606L12.416 1.68698C12.0486 1.94977 11.6165 2.08983 11.1748 2.08983C10.733 2.08979 10.3009 1.94986 9.93355 1.68698V1.68638L9.90343 1.66487L9.92351 1.69714L10.01 1.84776C10.1995 2.20657 10.3001 2.61279 10.3001 3.02703C10.3 3.50039 10.1689 3.96328 9.92351 4.35693L9.92295 4.35633L9.90287 4.3892L9.93355 4.36709L10.0747 4.27444C10.4095 4.07152 10.7883 3.96368 11.1748 3.96364C11.6163 3.96364 12.0482 4.10393 12.4155 4.36649L12.4445 4.38681L12.4255 4.35633V4.35573C12.1805 3.96227 12.0495 3.50004 12.0495 3.02703ZM13.192 3.02703C13.192 3.22947 13.2411 3.42787 13.3337 3.60322L13.3761 3.67674V3.67734L13.8257 4.39996L13.8771 4.49081C14.3586 5.43234 13.3268 6.48927 12.4567 5.86673L11.7823 5.38557L11.7817 5.38498C11.6021 5.25647 11.3908 5.18773 11.1748 5.18773C10.9589 5.18778 10.7479 5.25655 10.5684 5.38498H10.5678L9.89394 5.86732C8.99746 6.50839 7.92425 5.3642 8.52329 4.40056L8.97292 3.67734L8.97348 3.67674C9.09332 3.48438 9.15754 3.25831 9.15757 3.02703C9.15757 2.79563 9.09342 2.56917 8.97348 2.37673L8.97292 2.37613L8.52329 1.65351V1.65291C7.92583 0.691609 8.99464 -0.456286 9.89339 0.186746L9.89283 0.187343L10.5678 0.668495H10.5684C10.748 0.796971 10.9589 0.865691 11.1748 0.865737C11.3908 0.865737 11.6021 0.797014 11.7817 0.668495L12.4562 0.186746C13.3524 -0.453404 14.4263 0.688275 13.8257 1.65291L13.3761 2.37613V2.37673C13.2561 2.56918 13.192 2.79562 13.192 3.02703Z" fill="#D3D6D9"/>
</svg>
