<svg width="30" height="31" viewBox="0 0 30 31" fill="none" xmlns="http://www.w3.org/2000/svg">
<rect width="30" height="31" rx="15" fill="#2DA8B5"/>
<path d="M15.4148 22.6177L15.4071 22.6191L15.3574 22.6432L15.3434 22.6459L15.3336 22.6432L15.2839 22.6191C15.2764 22.6168 15.2708 22.618 15.2671 22.6226L15.2643 22.6294L15.2524 22.9237L15.2559 22.9375L15.2629 22.9464L15.3357 22.9973L15.3462 23.0001L15.3546 22.9973L15.4274 22.9464L15.4358 22.9354L15.4386 22.9237L15.4267 22.6301C15.4248 22.6228 15.4208 22.6187 15.4148 22.6177ZM15.6003 22.54L15.5912 22.5414L15.4617 22.6054L15.4547 22.6122L15.4526 22.6198L15.4652 22.9155L15.4687 22.9237L15.4743 22.9286L15.615 22.9925C15.6239 22.9948 15.6306 22.993 15.6353 22.987L15.6381 22.9774L15.6143 22.5552C15.612 22.5469 15.6073 22.5419 15.6003 22.54ZM15.0998 22.5414C15.0967 22.5396 15.093 22.539 15.0895 22.5398C15.0859 22.5405 15.0829 22.5426 15.0809 22.5455L15.0767 22.5552L15.0529 22.9774C15.0533 22.9856 15.0573 22.9911 15.0648 22.9939L15.0753 22.9925L15.216 22.9286L15.223 22.9231L15.2258 22.9155L15.2377 22.6198L15.2356 22.6116L15.2286 22.6047L15.0998 22.5414Z" fill="#D3D6D9"/>
<path d="M14.9996 19.6897C15.1853 19.6897 15.3633 19.7622 15.4946 19.8911C15.6259 20.0201 15.6997 20.195 15.6997 20.3774V21.065C15.6997 21.2474 15.6259 21.4223 15.4946 21.5512C15.3633 21.6802 15.1853 21.7526 14.9996 21.7526C14.814 21.7526 14.6359 21.6802 14.5046 21.5512C14.3733 21.4223 14.2996 21.2474 14.2996 21.065V20.3774C14.2996 20.195 14.3733 20.0201 14.5046 19.8911C14.6359 19.7622 14.814 19.6897 14.9996 19.6897ZM19.4547 18.2801L19.9496 18.7662C20.0771 18.8959 20.1477 19.0696 20.1461 19.2499C20.1445 19.4302 20.0709 19.6027 19.9411 19.7302C19.8113 19.8577 19.6357 19.93 19.4521 19.9316C19.2686 19.9331 19.0918 19.8638 18.9597 19.7386L18.4648 19.2524C18.3373 19.1227 18.2667 18.949 18.2683 18.7687C18.2699 18.5884 18.3435 18.416 18.4733 18.2885C18.6031 18.161 18.7787 18.0887 18.9623 18.0871C19.1458 18.0855 19.3226 18.1548 19.4547 18.2801ZM10.5446 18.2801C10.6705 18.1568 10.8396 18.0852 11.0174 18.0798C11.1951 18.0745 11.3683 18.1358 11.5017 18.2514C11.6351 18.3669 11.7187 18.528 11.7356 18.7019C11.7525 18.8759 11.7013 19.0496 11.5925 19.1878L11.5344 19.2524L11.0395 19.7386C10.9135 19.8619 10.7445 19.9335 10.5667 19.9388C10.3889 19.9441 10.2157 19.8828 10.0823 19.7673C9.94894 19.6517 9.86531 19.4906 9.84845 19.3167C9.83158 19.1428 9.88274 18.9691 9.99153 18.8309L10.0496 18.7662L10.5446 18.2801ZM14.9996 10.7505C16.1136 10.7505 17.1819 11.1852 17.9696 11.9589C18.7573 12.7327 19.1998 13.7821 19.1998 14.8763C19.1998 15.9705 18.7573 17.02 17.9696 17.7937C17.1819 18.5674 16.1136 19.0021 14.9996 19.0021C13.8856 19.0021 12.8173 18.5674 12.0296 17.7937C11.2419 17.02 10.7994 15.9705 10.7994 14.8763C10.7994 13.7821 11.2419 12.7327 12.0296 11.9589C12.8173 11.1852 13.8856 10.7505 14.9996 10.7505ZM9.3993 14.1887C9.57773 14.1889 9.74934 14.256 9.87909 14.3763C10.0088 14.4966 10.0869 14.6611 10.0974 14.836C10.1078 15.011 10.0499 15.1833 9.93535 15.3177C9.82083 15.4521 9.65838 15.5384 9.48121 15.5591L9.3993 15.5639H8.69926C8.52084 15.5638 8.34922 15.4966 8.21948 15.3763C8.08974 15.256 8.01166 15.0916 8.0012 14.9166C7.99075 14.7417 8.0487 14.5694 8.16322 14.435C8.27774 14.3006 8.44018 14.2142 8.61736 14.1935L8.69926 14.1887H9.3993ZM21.3 14.1887C21.4856 14.1887 21.6637 14.2611 21.795 14.3901C21.9262 14.519 22 14.6939 22 14.8763C22 15.0587 21.9262 15.2336 21.795 15.3625C21.6637 15.4915 21.4856 15.5639 21.3 15.5639H20.5999C20.4143 15.5639 20.2362 15.4915 20.1049 15.3625C19.9736 15.2336 19.8999 15.0587 19.8999 14.8763C19.8999 14.6939 19.9736 14.519 20.1049 14.3901C20.2362 14.2611 20.4143 14.1887 20.5999 14.1887H21.3ZM10.0496 10.0141C10.1702 9.89568 10.3306 9.82456 10.5007 9.81405C10.6708 9.80354 10.839 9.85437 10.9737 9.957L11.0395 10.0141L11.5344 10.5002C11.66 10.624 11.7329 10.79 11.7383 10.9646C11.7437 11.1393 11.6813 11.3094 11.5636 11.4404C11.446 11.5715 11.282 11.6536 11.105 11.6702C10.9279 11.6867 10.7511 11.6365 10.6104 11.5296L10.5446 11.4725L10.0496 10.9864C9.9184 10.8574 9.84468 10.6826 9.84468 10.5002C9.84468 10.3179 9.9184 10.143 10.0496 10.0141ZM19.9496 10.0141C20.0808 10.143 20.1545 10.3179 20.1545 10.5002C20.1545 10.6826 20.0808 10.8574 19.9496 10.9864L19.4547 11.4725C19.3901 11.5382 19.3128 11.5906 19.2274 11.6266C19.142 11.6627 19.0502 11.6816 18.9572 11.6824C18.8643 11.6832 18.7721 11.6658 18.686 11.6313C18.6 11.5967 18.5219 11.5456 18.4561 11.4811C18.3904 11.4165 18.3384 11.3397 18.3032 11.2552C18.268 11.1707 18.2503 11.0802 18.2511 10.9889C18.2519 10.8976 18.2712 10.8073 18.3079 10.7234C18.3446 10.6395 18.3979 10.5637 18.4648 10.5002L18.9597 10.0141C19.091 9.88516 19.269 9.81274 19.4547 9.81274C19.6403 9.81274 19.8183 9.88516 19.9496 10.0141ZM14.9996 8C15.1853 8 15.3633 8.07245 15.4946 8.2014C15.6259 8.33036 15.6997 8.50526 15.6997 8.68763V9.37526C15.6997 9.55763 15.6259 9.73254 15.4946 9.86149C15.3633 9.99045 15.1853 10.0629 14.9996 10.0629C14.814 10.0629 14.6359 9.99045 14.5046 9.86149C14.3733 9.73254 14.2996 9.55763 14.2996 9.37526V8.68763C14.2996 8.50526 14.3733 8.33036 14.5046 8.2014C14.6359 8.07245 14.814 8 14.9996 8Z" fill="#D3D6D9"/>
</svg>
