<svg width="14" height="15" viewBox="0 0 14 15" fill="none" xmlns="http://www.w3.org/2000/svg">
<path d="M7.41478 14.6176L7.40708 14.619L7.35737 14.6431L7.34337 14.6458L7.33357 14.6431L7.28387 14.619C7.2764 14.6167 7.2708 14.6179 7.26707 14.6224L7.26427 14.6293L7.25237 14.9236L7.25587 14.9374L7.26287 14.9463L7.33567 14.9972L7.34617 14.9999L7.35457 14.9972L7.42738 14.9463L7.43578 14.9353L7.43858 14.9236L7.42668 14.63C7.42481 14.6227 7.42084 14.6185 7.41478 14.6176ZM7.60029 14.5399L7.59119 14.5413L7.46168 14.6052L7.45468 14.6121L7.45258 14.6197L7.46518 14.9154L7.46868 14.9236L7.47428 14.9284L7.61499 14.9924C7.62385 14.9947 7.63062 14.9928 7.63529 14.9869L7.63809 14.9773L7.61429 14.5551C7.61195 14.5468 7.60729 14.5418 7.60029 14.5399ZM7.09976 14.5413C7.09667 14.5395 7.09299 14.5389 7.08947 14.5396C7.08594 14.5404 7.08286 14.5425 7.08086 14.5454L7.07666 14.5551L7.05286 14.9773C7.05332 14.9855 7.05729 14.991 7.06476 14.9938L7.07526 14.9924L7.21597 14.9284L7.22297 14.9229L7.22577 14.9154L7.23767 14.6197L7.23557 14.6114L7.22857 14.6046L7.09976 14.5413Z" fill="#D3D6D9"/>
<path d="M6.99961 11.6897C7.18527 11.6897 7.36333 11.7622 7.49461 11.8911C7.6259 12.0201 7.69965 12.195 7.69965 12.3774V13.065C7.69965 13.2474 7.6259 13.4223 7.49461 13.5512C7.36333 13.6802 7.18527 13.7526 6.99961 13.7526C6.81395 13.7526 6.63589 13.6802 6.50461 13.5512C6.37333 13.4223 6.29957 13.2474 6.29957 13.065V12.3774C6.29957 12.195 6.37333 12.0201 6.50461 11.8911C6.63589 11.7622 6.81395 11.6897 6.99961 11.6897ZM11.4547 10.2801L11.9496 10.7662C12.0771 10.8959 12.1477 11.0696 12.1461 11.2499C12.1445 11.4302 12.0709 11.6027 11.9411 11.7302C11.8113 11.8577 11.6357 11.93 11.4521 11.9316C11.2686 11.9331 11.0918 11.8638 10.9597 11.7386L10.4648 11.2524C10.3373 11.1227 10.2667 10.949 10.2683 10.7687C10.2699 10.5884 10.3435 10.416 10.4733 10.2885C10.6031 10.161 10.7787 10.0887 10.9623 10.0871C11.1458 10.0855 11.3226 10.1548 11.4547 10.2801ZM2.54457 10.2801C2.67054 10.1568 2.83959 10.0852 3.01736 10.0798C3.19513 10.0745 3.36831 10.1358 3.50171 10.2514C3.63512 10.3669 3.71874 10.528 3.73561 10.7019C3.75248 10.8759 3.70132 11.0496 3.59252 11.1878L3.53442 11.2524L3.03949 11.7386C2.91352 11.8619 2.74447 11.9335 2.5667 11.9388C2.38892 11.9441 2.21575 11.8828 2.08234 11.7673C1.94894 11.6517 1.86531 11.4906 1.84845 11.3167C1.83158 11.1428 1.88274 10.9691 1.99153 10.8309L2.04964 10.7662L2.54457 10.2801ZM6.99961 2.75053C8.11358 2.75053 9.18193 3.18521 9.96963 3.95894C10.7573 4.73268 11.1998 5.78209 11.1998 6.87632C11.1998 7.97054 10.7573 9.01995 9.96963 9.79369C9.18193 10.5674 8.11358 11.0021 6.99961 11.0021C5.88564 11.0021 4.8173 10.5674 4.0296 9.79369C3.2419 9.01995 2.79938 7.97054 2.79938 6.87632C2.79938 5.78209 3.2419 4.73268 4.0296 3.95894C4.8173 3.18521 5.88564 2.75053 6.99961 2.75053ZM1.3993 6.18868C1.57773 6.18888 1.74934 6.25599 1.87909 6.3763C2.00883 6.49662 2.0869 6.66105 2.09736 6.83602C2.10782 7.01098 2.04987 7.18326 1.93535 7.31766C1.82083 7.45206 1.65838 7.53843 1.48121 7.55913L1.3993 7.56395H0.699263C0.520838 7.56375 0.349221 7.49664 0.219479 7.37633C0.0897364 7.25601 0.0116607 7.09158 0.00120409 6.91661C-0.00925247 6.74165 0.0486994 6.56937 0.163219 6.43497C0.277738 6.30057 0.440182 6.2142 0.617359 6.1935L0.699263 6.18868H1.3993ZM13.3 6.18868C13.4856 6.18868 13.6637 6.26113 13.795 6.39009C13.9262 6.51904 14 6.69394 14 6.87632C14 7.05869 13.9262 7.23359 13.795 7.36254C13.6637 7.4915 13.4856 7.56395 13.3 7.56395H12.5999C12.4143 7.56395 12.2362 7.4915 12.1049 7.36254C11.9736 7.23359 11.8999 7.05869 11.8999 6.87632C11.8999 6.69394 11.9736 6.51904 12.1049 6.39009C12.2362 6.26113 12.4143 6.18868 12.5999 6.18868H13.3ZM2.04964 2.01407C2.17018 1.89568 2.33056 1.82456 2.50069 1.81405C2.67081 1.80354 2.839 1.85437 2.97369 1.957L3.03949 2.01407L3.53442 2.50023C3.65997 2.62397 3.73286 2.79002 3.73829 2.96464C3.74372 3.13927 3.68128 3.30937 3.56365 3.44041C3.44602 3.57145 3.28202 3.6536 3.10496 3.67016C2.92791 3.68673 2.75107 3.63648 2.61037 3.52961L2.54457 3.47254L2.04964 2.98638C1.9184 2.85743 1.84468 2.68256 1.84468 2.50023C1.84468 2.31789 1.9184 2.14302 2.04964 2.01407ZM11.9496 2.01407C12.0808 2.14302 12.1545 2.31789 12.1545 2.50023C12.1545 2.68256 12.0808 2.85743 11.9496 2.98638L11.4547 3.47254C11.3901 3.53822 11.3128 3.5906 11.2274 3.62664C11.142 3.66268 11.0502 3.68165 10.9572 3.68244C10.8643 3.68323 10.7721 3.66583 10.686 3.63126C10.6 3.59668 10.5219 3.54563 10.4561 3.48106C10.3904 3.4165 10.3384 3.33972 10.3032 3.25522C10.268 3.17071 10.2503 3.08016 10.2511 2.98886C10.2519 2.89756 10.2712 2.80732 10.3079 2.72343C10.3446 2.63954 10.3979 2.56366 10.4648 2.50023L10.9597 2.01407C11.091 1.88516 11.269 1.81274 11.4547 1.81274C11.6403 1.81274 11.8183 1.88516 11.9496 2.01407ZM6.99961 0C7.18527 0 7.36333 0.0724467 7.49461 0.201403C7.6259 0.330359 7.69965 0.50526 7.69965 0.687632V1.37526C7.69965 1.55763 7.6259 1.73254 7.49461 1.86149C7.36333 1.99045 7.18527 2.06289 6.99961 2.06289C6.81395 2.06289 6.63589 1.99045 6.50461 1.86149C6.37333 1.73254 6.29957 1.55763 6.29957 1.37526V0.687632C6.29957 0.50526 6.37333 0.330359 6.50461 0.201403C6.63589 0.0724467 6.81395 0 6.99961 0Z" fill="#D3D6D9"/>
</svg>
