<svg width="17" height="20" viewBox="0 0 17 20" fill="none" xmlns="http://www.w3.org/2000/svg">
<path d="M11.163 4.4186C11.163 2.74891 9.80946 1.39535 8.13977 1.39535C6.47007 1.39535 5.11651 2.74891 5.11651 4.4186C5.11651 6.0883 6.47007 7.44186 8.13977 7.44186C9.80946 7.44186 11.163 6.0883 11.163 4.4186ZM12.5584 4.4186C12.5584 6.85893 10.5801 8.83721 8.13977 8.83721C5.69944 8.83721 3.72116 6.85893 3.72116 4.4186C3.72116 1.97828 5.69944 0 8.13977 0C10.5801 0 12.5584 1.97828 12.5584 4.4186Z" fill="#1D7B74"/>
<path d="M14.884 15.1163C14.884 14.3245 14.3059 13.4653 13.0598 12.7643C11.8356 12.0757 10.0975 11.6279 8.13978 11.6279C6.18207 11.6279 4.44391 12.0757 3.21972 12.7643C1.97363 13.4653 1.3956 14.3245 1.3956 15.1163C1.3956 16.3327 1.43312 17.0178 2.06874 17.5354C2.4134 17.816 2.98959 18.0898 3.97554 18.2894C4.95874 18.4884 6.3033 18.6046 8.13978 18.6046C9.97627 18.6046 11.3208 18.4884 12.304 18.2894C13.29 18.0898 13.8662 17.816 14.2108 17.5354C14.8464 17.0178 14.884 16.3327 14.884 15.1163ZM16.2793 15.1163C16.2793 16.2115 16.3168 17.6199 15.092 18.6174C14.5065 19.0942 13.6869 19.4335 12.5802 19.6575C11.4704 19.8821 10.024 20 8.13978 20C6.25556 20 4.80914 19.8821 3.69937 19.6575C2.5927 19.4335 1.77311 19.0942 1.18757 18.6174C-0.0372787 17.6199 0.000247164 16.2115 0.000247164 15.1163C0.000247164 13.5964 1.08828 12.3621 2.53568 11.548C4.00495 10.7215 5.98783 10.2325 8.13978 10.2325C10.2917 10.2325 12.2746 10.7215 13.7439 11.548C15.1913 12.3621 16.2793 13.5964 16.2793 15.1163Z" fill="#1D7B74"/>
</svg>
