<svg width="73" height="24" viewBox="0 0 73 24" fill="none" xmlns="http://www.w3.org/2000/svg">
<path d="M0.5 6.25L3.5 2H6.625L4 5.75H11.875C14.0299 5.75 16.0965 6.60602 17.6202 8.12976C19.144 9.65349 20 11.7201 20 13.875C20 16.0299 19.144 18.0965 17.6202 19.6202C16.0965 21.144 14.0299 22 11.875 22H6.25L7.5 19.5H11.875C13.3668 19.5 14.7976 18.9074 15.8525 17.8525C16.9074 16.7976 17.5 15.3668 17.5 13.875C17.5 12.3832 16.9074 10.9524 15.8525 9.89752C14.7976 8.84263 13.3668 8.25 11.875 8.25H4L6.625 12H3.5L0.5 7.75L0 7L0.5 6.25Z" fill="#319795"/>
<path d="M35.0496 6.88L30.8736 18H28.7616L24.5696 6.88H26.5216L29.8176 16.128L33.1296 6.88H35.0496ZM40.399 18.144C39.567 18.144 38.815 17.9573 38.143 17.584C37.471 17.2 36.943 16.6667 36.559 15.984C36.175 15.2907 35.983 14.4907 35.983 13.584C35.983 12.688 36.1803 11.8933 36.575 11.2C36.9697 10.5067 37.5083 9.97333 38.191 9.6C38.8737 9.22667 39.6363 9.04 40.479 9.04C41.3217 9.04 42.0843 9.22667 42.767 9.6C43.4497 9.97333 43.9883 10.5067 44.383 11.2C44.7777 11.8933 44.975 12.688 44.975 13.584C44.975 14.48 44.7723 15.2747 44.367 15.968C43.9617 16.6613 43.407 17.2 42.703 17.584C42.0097 17.9573 41.2417 18.144 40.399 18.144ZM40.399 16.56C40.8683 16.56 41.3057 16.448 41.711 16.224C42.127 16 42.463 15.664 42.719 15.216C42.975 14.768 43.103 14.224 43.103 13.584C43.103 12.944 42.9803 12.4053 42.735 11.968C42.4897 11.52 42.1643 11.184 41.759 10.96C41.3537 10.736 40.9163 10.624 40.447 10.624C39.9777 10.624 39.5403 10.736 39.135 10.96C38.7403 11.184 38.4257 11.52 38.191 11.968C37.9563 12.4053 37.839 12.944 37.839 13.584C37.839 14.5333 38.079 15.2693 38.559 15.792C39.0497 16.304 39.663 16.56 40.399 16.56ZM48.6021 6.16V18H46.7781V6.16H48.6021ZM53.1249 10.672V15.552C53.1249 15.8827 53.1995 16.1227 53.3489 16.272C53.5089 16.4107 53.7755 16.48 54.1489 16.48H55.2689V18H53.8289C53.0075 18 52.3782 17.808 51.9409 17.424C51.5035 17.04 51.2849 16.416 51.2849 15.552V10.672H50.2449V9.184H51.2849V6.992H53.1249V9.184H55.2689V10.672H53.1249ZM56.342 13.552C56.342 12.6667 56.5233 11.8827 56.886 11.2C57.2593 10.5173 57.7607 9.98933 58.39 9.616C59.03 9.232 59.734 9.04 60.502 9.04C61.1953 9.04 61.798 9.17867 62.31 9.456C62.8327 9.72267 63.2487 10.0587 63.558 10.464V9.184H65.398V18H63.558V16.688C63.2487 17.104 62.8273 17.4507 62.294 17.728C61.7607 18.0053 61.1527 18.144 60.47 18.144C59.7127 18.144 59.0193 17.952 58.39 17.568C57.7607 17.1733 57.2593 16.6293 56.886 15.936C56.5233 15.232 56.342 14.4373 56.342 13.552ZM63.558 13.584C63.558 12.976 63.43 12.448 63.174 12C62.9287 11.552 62.6033 11.2107 62.198 10.976C61.7927 10.7413 61.3553 10.624 60.886 10.624C60.4167 10.624 59.9793 10.7413 59.574 10.976C59.1687 11.2 58.838 11.536 58.582 11.984C58.3367 12.4213 58.214 12.944 58.214 13.552C58.214 14.16 58.3367 14.6933 58.582 15.152C58.838 15.6107 59.1687 15.9627 59.574 16.208C59.99 16.4427 60.4273 16.56 60.886 16.56C61.3553 16.56 61.7927 16.4427 62.198 16.208C62.6033 15.9733 62.9287 15.632 63.174 15.184C63.43 14.7253 63.558 14.192 63.558 13.584ZM69.6178 10.464C69.8844 10.016 70.2364 9.66933 70.6738 9.424C71.1218 9.168 71.6498 9.04 72.2578 9.04V10.928H71.7938C71.0791 10.928 70.5351 11.1093 70.1618 11.472C69.7991 11.8347 69.6178 12.464 69.6178 13.36V18H67.7938V9.184H69.6178V10.464Z" fill="#319795"/>
</svg>
