<svg width="40" height="30" viewBox="0 0 40 30" fill="none" xmlns="http://www.w3.org/2000/svg">
<g clip-path="url(#clip0_210_164)">
<path d="M37.0873 13.8736C37.0873 7.95995 36.456 5.64346 35.1133 4.30304C34.5182 3.70904 33.689 3.33006 32.1589 3.12449C30.5866 2.91331 28.5052 2.91038 25.5352 2.91038H14.4667C11.4963 2.91038 9.41381 2.91329 7.84109 3.12449C6.3105 3.33009 5.48244 3.70966 4.88859 4.30304C3.54694 5.64379 2.91268 7.96084 2.91268 13.8736V16.1264C2.91268 22.0394 3.54681 24.3581 4.88859 25.6989C5.48239 26.2918 6.3111 26.67 7.84109 26.8755C9.41381 27.0867 11.4963 27.0896 14.4667 27.0896H25.5352C28.5051 27.0896 30.5863 27.0867 32.1589 26.8755C33.6898 26.6699 34.5194 26.2922 35.1133 25.6989C36.4551 24.3581 37.0873 22.0394 37.0873 16.1264V13.8736ZM40 16.1264C40 21.9209 39.4698 25.4613 37.1727 27.7566C35.9473 28.9809 34.4009 29.5104 32.5476 29.7594C30.736 30.0026 28.4229 30 25.5352 30H14.4667C11.5789 30 9.26601 30.0026 7.45425 29.7594C5.60102 29.5105 4.05466 28.9807 2.82924 27.7566C0.532117 25.4613 0 21.9209 0 16.1264V13.8736C0 8.07908 0.532117 4.53873 2.82924 2.24342C4.05465 1.01939 5.60106 0.489501 7.45425 0.240638C9.266 -0.00260749 11.5789 1.1514e-06 14.4667 1.1514e-06H25.5352C28.4226 6.13334e-07 30.7344 -0.00258326 32.5457 0.240638C34.399 0.489546 35.9446 1.01989 37.1708 2.24342C39.4707 4.53906 40 8.07999 40 13.8736V16.1264Z" fill="#F5F7FA"/>
<path d="M16.6024 19.6505L24.0471 15.0007L16.6024 10.349V19.6505ZM27.2215 15.0007C27.2214 15.4449 27.1072 15.8817 26.8916 16.2702C26.6758 16.6589 26.3644 16.986 25.987 17.2214L17.7003 22.396C17.3038 22.6437 16.848 22.7815 16.3805 22.7939C15.9131 22.8063 15.4508 22.6923 15.0417 22.4661C14.6329 22.24 14.2915 21.9094 14.0538 21.5074C13.8161 21.1052 13.6904 20.6462 13.6897 20.1791V9.82607C13.6895 9.35844 13.8145 8.89891 14.0519 8.49594L14.2491 8.20793C14.4644 7.9338 14.7328 7.70351 15.0398 7.53339L15.3565 7.3856C15.6811 7.25877 16.0297 7.19642 16.3805 7.2056L16.7275 7.2397C16.9572 7.27664 17.1812 7.34273 17.3931 7.43865L17.7003 7.6035L25.987 12.7781L26.2582 12.9714C26.5148 13.1809 26.7298 13.438 26.8916 13.7293C27.1073 14.1181 27.2215 14.5562 27.2215 15.0007Z" fill="#F5F7FA"/>
</g>
<defs>
<clipPath id="clip0_210_164">
<rect width="40" height="30" fill="white"/>
</clipPath>
</defs>
</svg>
